<?xml version="1.0"?>
<svg xmlns="http://www.w3.org/2000/svg" viewBox="0 0 175.28 55.49">
  <defs>
    <style>.cls-1,.cls-5{fill:#e94f1b;}.cls-2{fill:#1d1d1b;}.cls-3,.cls-4{fill:none;stroke:#e9511d;}.cls-3,.cls-4,.cls-5{stroke-miterlimit:10;}.cls-4{stroke-width:0.75px;}.cls-5{stroke:#fff;stroke-width:2px;}</style>
  </defs>
  <title>Asset 2</title>
  <g id="Layer_2">
    <g id="Layer_1-2">
      <rect class="cls-1" y="25.07" width="175.28" height="1.2"/>
      <path class="cls-2" d="M90.45,51.88a2.46,2.46,0,0,1,.76-2A2.76,2.76,0,0,1,93,49.24c2.08,0,3.88.06,5.39.19v1.4H93.5a1.29,1.29,0,0,0-1,.35,1.37,1.37,0,0,0-.35,1V55.1l5.46.11v1.33l-5.46.11v5.23H90.45Z" transform="translate(0 -7.23)"/>
      <path class="cls-2" d="M99.85,61.36a2.18,2.18,0,0,1-.65-1.68V59a2.23,2.23,0,0,1,.74-1.76,3.22,3.22,0,0,1,2.19-.66H105v-1a1.86,1.86,0,0,0-.19-.91,1.16,1.16,0,0,0-.67-.54,4,4,0,0,0-1.4-.19H99.92v-1a16.36,16.36,0,0,1,3.39-.37,4,4,0,0,1,2.58.68,2.68,2.68,0,0,1,.83,2.22v6.42h-1.35l-.29-1a4.09,4.09,0,0,1-.73.41,9.25,9.25,0,0,1-1.34.5,5.59,5.59,0,0,1-1.48.22A2.34,2.34,0,0,1,99.85,61.36Zm3.5-.78c.38-.1.75-.2,1.08-.32A5,5,0,0,0,105,60V57.4l-2.4.1c-1.11.07-1.66.56-1.66,1.48v.41a1.21,1.21,0,0,0,.41,1,1.6,1.6,0,0,0,1,.32A4.11,4.11,0,0,0,103.35,60.58Z" transform="translate(0 -7.23)"/>
      <path class="cls-2" d="M109.72,61a5.29,5.29,0,0,1-1-3.64,7.55,7.55,0,0,1,.44-2.86A2.82,2.82,0,0,1,110.45,53a4.68,4.68,0,0,1,2.07-.41,14.83,14.83,0,0,1,3.07.29v1H113a3,3,0,0,0-1.44.29,1.83,1.83,0,0,0-.81,1,6.53,6.53,0,0,0-.27,2.12,5.85,5.85,0,0,0,.28,2.06,1.78,1.78,0,0,0,.83,1,3.06,3.06,0,0,0,1.43.28h2.71v1a15.3,15.3,0,0,1-1.53.25,16.85,16.85,0,0,1-1.73.09A3.57,3.57,0,0,1,109.72,61Z" transform="translate(0 -7.23)"/>
      <path class="cls-2" d="M117.46,48.79h1.71V53.7a6.59,6.59,0,0,1,1.51-.82,4.77,4.77,0,0,1,1.72-.33,2.58,2.58,0,0,1,2.12.86,3.51,3.51,0,0,1,.71,2.28v6.19h-1.72v-6A1.78,1.78,0,0,0,123,54.6a1.64,1.64,0,0,0-1.26-.49,4.14,4.14,0,0,0-1.31.2,7.92,7.92,0,0,0-1.3.62v7h-1.71Z" transform="translate(0 -7.23)"/>
      <path class="cls-2" d="M128.82,61.9a8.33,8.33,0,0,1-1.57-.21v-1h3.86a2.56,2.56,0,0,0,1.22-.23,1,1,0,0,0,.39-.94v-.37c0-.74-.49-1.1-1.47-1.1h-1.34a3.35,3.35,0,0,1-2-.54,2.1,2.1,0,0,1-.72-1.79v-.5a2.36,2.36,0,0,1,.78-1.95,4.21,4.21,0,0,1,2.58-.62c.5,0,1.09,0,1.76.09a13.07,13.07,0,0,1,1.57.22v1H130.2a2,2,0,0,0-1.18.28,1.08,1.08,0,0,0-.38,1v.34a.89.89,0,0,0,.37.86,2.52,2.52,0,0,0,1.19.2h1.37a2.9,2.9,0,0,1,2,.6,2.2,2.2,0,0,1,.67,1.72v.7a2,2,0,0,1-.86,1.85,5,5,0,0,1-2.57.52C130.21,62,129.56,62,128.82,61.9Z" transform="translate(0 -7.23)"/>
      <path class="cls-2" d="M136.83,61a5.29,5.29,0,0,1-1-3.64,7.55,7.55,0,0,1,.44-2.86A2.82,2.82,0,0,1,137.56,53a4.68,4.68,0,0,1,2.07-.41,14.76,14.76,0,0,1,3.07.29v1h-2.59a3.06,3.06,0,0,0-1.44.29,1.83,1.83,0,0,0-.81,1,6.53,6.53,0,0,0-.27,2.12,5.85,5.85,0,0,0,.28,2.06,1.78,1.78,0,0,0,.83,1,3.06,3.06,0,0,0,1.43.28h2.71v1a15.3,15.3,0,0,1-1.53.25,16.85,16.85,0,0,1-1.73.09A3.57,3.57,0,0,1,136.83,61Z" transform="translate(0 -7.23)"/>
      <path class="cls-2" d="M144.57,48.79h1.71V53.7a6.59,6.59,0,0,1,1.51-.82,4.81,4.81,0,0,1,1.72-.33,2.57,2.57,0,0,1,2.12.86,3.51,3.51,0,0,1,.71,2.28v6.19h-1.72v-6a1.74,1.74,0,0,0-.47-1.29,1.64,1.64,0,0,0-1.26-.49,4.14,4.14,0,0,0-1.31.2,7.92,7.92,0,0,0-1.3.62v7h-1.71Z" transform="translate(0 -7.23)"/>
      <path class="cls-2" d="M154.84,61.36a2.21,2.21,0,0,1-.65-1.68V59a2.23,2.23,0,0,1,.75-1.76,3.17,3.17,0,0,1,2.18-.66H160v-1a2,2,0,0,0-.19-.91,1.19,1.19,0,0,0-.68-.54,4,4,0,0,0-1.4-.19h-2.81v-1a16.54,16.54,0,0,1,3.4-.37,4.08,4.08,0,0,1,2.58.68,2.71,2.71,0,0,1,.83,2.22v6.42h-1.36l-.29-1a3.43,3.43,0,0,1-.73.41,9.56,9.56,0,0,1-1.33.5,5.66,5.66,0,0,1-1.49.22A2.37,2.37,0,0,1,154.84,61.36Zm3.5-.78c.39-.1.75-.2,1.09-.32s.52-.2.56-.22V57.4l-2.4.1c-1.11.07-1.67.56-1.67,1.48v.41a1.21,1.21,0,0,0,.41,1,1.62,1.62,0,0,0,1,.32A4.11,4.11,0,0,0,158.34,60.58Z" transform="translate(0 -7.23)"/>
      <path class="cls-2" d="M164.6,54.11h-1.37V53l1.37-.29v-.91a3.71,3.71,0,0,1,.62-2.35,2.66,2.66,0,0,1,2.14-.75,8.89,8.89,0,0,1,1.8.19v1.23h-1.49a1.27,1.27,0,0,0-1.07.38,2,2,0,0,0-.29,1.22v1H169v1.41h-2.7v7.77H164.6Z" transform="translate(0 -7.23)"/>
      <path class="cls-2" d="M171.58,61.17a3.3,3.3,0,0,1-.62-2.35l.07-4.71h-1.46V53l1.49-.29.26-2.57h1.36V52.7h2.48v1.41h-2.48v4.7a1.8,1.8,0,0,0,.35,1.28,1.35,1.35,0,0,0,.88.41l1.13.11v1.27h-1.39A2.69,2.69,0,0,1,171.58,61.17Z" transform="translate(0 -7.23)"/>
      <g id="Layer_1-2-2">
        <path class="cls-3" d="M88,45.53c8.73,0,8.73-27.4,17.45-27.4s8.74,27.4,17.47,27.4,8.72-27.4,17.46-27.4,8.73,27.4,17.46,27.4,8.73-27.4,17.46-27.4" transform="translate(0 -7.23)"/>
      </g>
      <line class="cls-4" x1="88.09" x2="88.09" y2="55.49"/>
      <path class="cls-5" d="M16.08,54.12c-2.27-1.34-3.4-4.1-3.4-8.25v-26q0-5.67,3.12-8.16a11.7,11.7,0,0,1,7.53-2.49q9.65,0,20.16.82v7.81H26.1c-2.73,0-4.1,1.29-4.1,3.85v6.74l18.47.51v7.37L22,36.79v6.43c0,2.77,1.31,4.16,3.91,4.16H43.49v7.81a176,176,0,0,1-19.47,1A15.25,15.25,0,0,1,16.08,54.12Z" transform="translate(0 -7.23)"/>
      <path class="cls-5" d="M60.06,17.57H47.27V9.19h35v8.38H69.39V55.82H60.06Z" transform="translate(0 -7.23)"/>
    </g>
  </g>
</svg>
